<?xml version="1.0" encoding="utf-8"?>
<!-- Generator: Adobe Illustrator 16.0.0, SVG Export Plug-In . SVG Version: 6.00 Build 0)  -->
<!DOCTYPE svg PUBLIC "-//W3C//DTD SVG 1.1//EN" "http://www.w3.org/Graphics/SVG/1.1/DTD/svg11.dtd">
<svg version="1.1" id="Layer_1" xmlns="http://www.w3.org/2000/svg" xmlns:xlink="http://www.w3.org/1999/xlink" x="0px" y="0px"
	 width="479.167px" height="511.458px" viewBox="0 0 479.167 511.458" enable-background="new 0 0 479.167 511.458"
	 xml:space="preserve">
<g>
	<path d="M84.08,75.205l-4,11c0,0-6.18,20.37-22.86,25.04c-3.23-1.56-2.3-5.29-0.74-8.22c12.44-10.76,26.27-39.82,28.27-39.15
		S84.08,75.205,84.08,75.205z"/>
	<path d="M173,179.965c-6.04-20.17-13.92-35.76-20.25-42.09s-10-8-15.6-9.45c-5.61-1.45-12.73-1.22-18.07,0.45
		c-5.33,1.67-12.33,5.67-12.33,5.67c-16.49,10.27-18.22,23.38-18.16,42.43c1.19,24.84,19.83,56.23,28.83,62.9
		s13.75,6.75,19.73,11.05c9.58,2.86,18.92-1.18,26.14-8.22C178.79,225.775,176.61,202.745,173,179.965z M135.5,137.905
		c7.35,0,17.05,17.94,6.5,17.94C134.65,155.845,124.95,137.905,135.5,137.905z M155.82,238.975c-5.66,4.86-13.76,3.3-20.91,1.49
		c-26.15-12.2-38.28-39.27-38.85-66.48c1.5-12.01,2.12-27.88,14.94-33.61c0.25,9.46-0.06,18.49,5.23,26.89
		c6.54,10.58,19.92,15.88,32.12,13.45c7.1-3.8,8.34-12.52,13.45-16.44C170.07,186.875,177.23,220.175,155.82,238.975z"/>
	<path d="M155.82,378.655c-3.8,0.25-4.42-5.04-5.23-8.221c-3.24-38.22,3.61-77.43,21.66-109.05c9.34-11.95,20.86-29.69,35.86-27.64
		l5.97,12.7c1.74,7.03,4.55,19.48-2.24,23.9c-0.06-9.399,2.74-25.27-7.47-29.88C166.96,277.755,151.71,330.665,155.82,378.655z"/>
	<path d="M185.7,20.115c13.94,10.21,30.44,19.24,48.55,23.16l2.24,4.48c-10.4,10.89-22.84-1.25-34.36-2.99
		C195.28,38.415,185.33,30.325,185.7,20.115z"/>
	<path d="M243.21,351.015c-3.73,2.99-10.04-3.399-13.46-4.89c-5.76-1.65-20-10.25-42,7c-3.25,3.25-3.55-1.36-3.55-1.36
		c2.37-9.279,13.04-12.26,20.17-13.449C211.5,337.125,235.74,339.065,243.21,351.015z"/>
	<path d="M282.8,280.055c-15.31-34.05-43.63-62.68-63.49-94.86c4.3-0.5,8.96,2.3,12.7,4.48c12.141,4.05,21.79,0.31,29.88-8.96
		c10.891-16.56,10.17-52.66,9.53-57.84c-0.65-5.18-3.34-13-5.8-18.35c-8.09-16-26.14-33.12-44.82-21.66
		c-15.25,9.08-21.16,27.45-23.9,44.81c-1.31,9.4,3.68,18.74,1.5,28.39c-6.85-7.47-17.98-27.86-17.98-27.86s-1.63-7.62-7.42-7.25
		c-1.37-0.37-1.06,1.81-0.75,2.99c12.14,26.2,34.24,47.37,48.55,72.45c16.19,28.45,40.16,51.79,50.8,82.91
		c-7.22,5.29-33.62,3.74-33.62,3.74s-33.67,0.311-46.31,8.96c13.88,7.851,29.13-2.43,44.82,0l2.99,1.5l-1.5,29.13
		c-6.91-0.06-12.82-3.18-20.16-2.99c-19.11,3.24-44.01,8.221-49.3,30.62c5.29-2.8,7.47-10.58,13.44-14.93
		c20.48-14.94,46.63-10.58,67.23-0.75c3.05,0.12,5.85-4.229,2.239-5.979c-11.02-0.74-5.729-11.95-7.47-18.671
		c1.43-5.729-1.99-13.51,0-18.68c12.33-1.68,33.04,0.12,35.11-1.49C281.14,288.155,286.16,284.295,282.8,280.055z M235.69,91.335
		c0.56-1.12,1.44-1.82,2.66-2.09c0.63-0.01,1.26-0.02,1.9-0.03c1.56,0.28,2.99,0.87,4.29,1.79c0.72,0.57,1.45,1.15,2.17,1.73
		c2.13,1.99,3.88,4.5,4.88,7.25c0.71,1.97,1.18,4.45,0.22,6.43c-0.56,1.12-1.439,1.82-2.659,2.09c-0.631,0.01-1.261,0.02-1.9,0.03
		c-1.56-0.28-2.99-0.87-4.29-1.79c-0.72-0.57-1.45-1.15-2.17-1.73c-2.13-1.99-3.88-4.5-4.88-7.25
		C235.2,95.795,234.73,93.315,235.69,91.335z M204.37,139.625c-0.06-16.24,2.12-33.05,12.7-42.57c-1.87,14.5,9.87,38.34,14.94,41.08
		c5.07,2.74,17.431,9.83,26.141,2.99l8.22-8.97c2.06,16.13-0.12,31.69-11.2,44.07c-6.35,4.42-15.69,6.92-23.16,3.74
		C215.2,173.495,205.55,156.375,204.37,139.625z"/>
	<path fill="#FFFFFF" d="M84.08,75.205l-4,11c0,0-6.18,20.37-22.86,25.04c-3.23-1.56-2.3-5.29-0.74-8.22
		c12.44-10.76,26.27-39.82,28.27-39.15S84.08,75.205,84.08,75.205z"/>
	<path fill="#FFFFFF" d="M173,179.965c-6.04-20.17-13.92-35.76-20.25-42.09s-10-8-15.6-9.45c-5.61-1.45-12.73-1.22-18.07,0.45
		c-5.33,1.67-12.33,5.67-12.33,5.67c-16.49,10.27-18.22,23.38-18.16,42.43c1.19,24.84,19.83,56.23,28.83,62.9
		s13.75,6.75,19.73,11.05c9.58,2.86,18.92-1.18,26.14-8.22C178.79,225.775,176.61,202.745,173,179.965z M135.5,137.905
		c7.35,0,17.05,17.94,6.5,17.94C134.65,155.845,124.95,137.905,135.5,137.905z M155.82,238.975c-5.66,4.86-13.76,3.3-20.91,1.49
		c-26.15-12.2-38.28-39.27-38.85-66.48c1.5-12.01,2.12-27.88,14.94-33.61c0.25,9.46-0.06,18.49,5.23,26.89
		c6.54,10.58,19.92,15.88,32.12,13.45c7.1-3.8,8.34-12.52,13.45-16.44C170.07,186.875,177.23,220.175,155.82,238.975z"/>
	<path fill="#FFFFFF" d="M155.82,378.655c-3.8,0.25-4.42-5.04-5.23-8.221c-3.24-38.22,3.61-77.43,21.66-109.05
		c9.34-11.95,20.86-29.69,35.86-27.64l5.97,12.7c1.74,7.03,4.55,19.48-2.24,23.9c-0.06-9.399,2.74-25.27-7.47-29.88
		C166.96,277.755,151.71,330.665,155.82,378.655z"/>
	<path fill="#FFFFFF" d="M185.7,20.115c13.94,10.21,30.44,19.24,48.55,23.16l2.24,4.48c-10.4,10.89-22.84-1.25-34.36-2.99
		C195.28,38.415,185.33,30.325,185.7,20.115z"/>
	<path fill="#FFFFFF" d="M243.21,351.015c-3.73,2.99-10.04-3.399-13.46-4.89c-5.76-1.65-20-10.25-42,7
		c-3.25,3.25-3.55-1.36-3.55-1.36c2.37-9.279,13.04-12.26,20.17-13.449C211.5,337.125,235.74,339.065,243.21,351.015z"/>
	<path fill="#FFFFFF" d="M282.8,280.055c-15.31-34.05-43.63-62.68-63.49-94.86c4.3-0.5,8.96,2.3,12.7,4.48
		c12.141,4.05,21.79,0.31,29.88-8.96c10.891-16.56,10.17-52.66,9.53-57.84c-0.65-5.18-3.34-13-5.8-18.35
		c-8.09-16-26.14-33.12-44.82-21.66c-15.25,9.08-21.16,27.45-23.9,44.81c-1.31,9.4,3.68,18.74,1.5,28.39
		c-6.85-7.47-17.98-27.86-17.98-27.86s-1.63-7.62-7.42-7.25c-1.37-0.37-1.06,1.81-0.75,2.99c12.14,26.2,34.24,47.37,48.55,72.45
		c16.19,28.45,40.16,51.79,50.8,82.91c-7.22,5.29-33.62,3.74-33.62,3.74s-33.67,0.311-46.31,8.96c13.88,7.851,29.13-2.43,44.82,0
		l2.99,1.5l-1.5,29.13c-6.91-0.06-12.82-3.18-20.16-2.99c-19.11,3.24-44.01,8.221-49.3,30.62c5.29-2.8,7.47-10.58,13.44-14.93
		c20.48-14.94,46.63-10.58,67.23-0.75c3.05,0.12,5.85-4.229,2.239-5.979c-11.02-0.74-5.729-11.95-7.47-18.671
		c1.43-5.729-1.99-13.51,0-18.68c12.33-1.68,33.04,0.12,35.11-1.49C281.14,288.155,286.16,284.295,282.8,280.055z M235.69,91.335
		c0.56-1.12,1.44-1.82,2.66-2.09c0.63-0.01,1.26-0.02,1.9-0.03c1.56,0.28,2.99,0.87,4.29,1.79c0.72,0.57,1.45,1.15,2.17,1.73
		c2.13,1.99,3.88,4.5,4.88,7.25c0.71,1.97,1.18,4.45,0.22,6.43c-0.56,1.12-1.439,1.82-2.659,2.09c-0.631,0.01-1.261,0.02-1.9,0.03
		c-1.56-0.28-2.99-0.87-4.29-1.79c-0.72-0.57-1.45-1.15-2.17-1.73c-2.13-1.99-3.88-4.5-4.88-7.25
		C235.2,95.795,234.73,93.315,235.69,91.335z M204.37,139.625c-0.06-16.24,2.12-33.05,12.7-42.57c-1.87,14.5,9.87,38.34,14.94,41.08
		c5.07,2.74,17.431,9.83,26.141,2.99l8.22-8.97c2.06,16.13-0.12,31.69-11.2,44.07c-6.35,4.42-15.69,6.92-23.16,3.74
		C215.2,173.495,205.55,156.375,204.37,139.625z"/>
	<path d="M236.49,47.755c-10.4,10.89-22.84-1.25-34.36-2.99c-6.85-6.35-16.8-14.44-16.43-24.65c13.94,10.21,30.44,19.24,48.55,23.16
		L236.49,47.755z"/>
	<path d="M84.08,75.205l-4,11c0,0-6.18,20.37-22.86,25.04c-3.23-1.56-2.3-5.29-0.74-8.22c12.44-10.76,26.27-39.82,28.27-39.15
		S84.08,75.205,84.08,75.205z"/>
	<path d="M282.8,280.055c-15.31-34.05-43.63-62.68-63.49-94.86c4.3-0.5,8.96,2.3,12.7,4.48c12.141,4.05,21.79,0.31,29.88-8.96
		c10.891-16.56,10.17-52.66,9.53-57.84c-0.65-5.18-3.34-13-5.8-18.35c-8.09-16-26.14-33.12-44.82-21.66
		c-15.25,9.08-21.16,27.45-23.9,44.81c-1.31,9.4,3.68,18.74,1.5,28.39c-6.85-7.47-17.98-27.86-17.98-27.86s-1.63-7.62-7.42-7.25
		c-1.37-0.37-1.06,1.81-0.75,2.99c12.14,26.2,34.24,47.37,48.55,72.45c16.19,28.45,40.16,51.79,50.8,82.91
		c-7.22,5.29-33.62,3.74-33.62,3.74s-33.67,0.311-46.31,8.96c13.88,7.851,29.13-2.43,44.82,0l2.99,1.5l-1.5,29.13
		c-6.91-0.06-12.82-3.18-20.16-2.99c-19.11,3.24-44.01,8.221-49.3,30.62c5.29-2.8,7.47-10.58,13.44-14.93
		c20.48-14.94,46.63-10.58,67.23-0.75c3.05,0.12,5.85-4.229,2.239-5.979c-11.02-0.74-5.729-11.95-7.47-18.671
		c1.43-5.729-1.99-13.51,0-18.68c12.33-1.68,33.04,0.12,35.11-1.49C281.14,288.155,286.16,284.295,282.8,280.055z M235.69,91.335
		c0.56-1.12,1.44-1.82,2.66-2.09c0.63-0.01,1.26-0.02,1.9-0.03c1.56,0.28,2.99,0.87,4.29,1.79c0.72,0.57,1.45,1.15,2.17,1.73
		c2.13,1.99,3.88,4.5,4.88,7.25c0.71,1.97,1.18,4.45,0.22,6.43c-0.56,1.12-1.439,1.82-2.659,2.09c-0.631,0.01-1.261,0.02-1.9,0.03
		c-1.56-0.28-2.99-0.87-4.29-1.79c-0.72-0.57-1.45-1.15-2.17-1.73c-2.13-1.99-3.88-4.5-4.88-7.25
		C235.2,95.795,234.73,93.315,235.69,91.335z M204.37,139.625c-0.06-16.24,2.12-33.05,12.7-42.57c-1.87,14.5,9.87,38.34,14.94,41.08
		c5.07,2.74,17.431,9.83,26.141,2.99l8.22-8.97c2.06,16.13-0.12,31.69-11.2,44.07c-6.35,4.42-15.69,6.92-23.16,3.74
		C215.2,173.495,205.55,156.375,204.37,139.625z"/>
	<path d="M173,179.965c-6.04-20.17-13.92-35.76-20.25-42.09s-10-8-15.6-9.45c-5.61-1.45-12.73-1.22-18.07,0.45
		c-5.33,1.67-12.33,5.67-12.33,5.67c-16.49,10.27-18.22,23.38-18.16,42.43c1.19,24.84,19.83,56.23,28.83,62.9
		s13.75,6.75,19.73,11.05c9.58,2.86,18.92-1.18,26.14-8.22C178.79,225.775,176.61,202.745,173,179.965z M135.5,137.905
		c7.35,0,17.05,17.94,6.5,17.94C134.65,155.845,124.95,137.905,135.5,137.905z M155.82,238.975c-5.66,4.86-13.76,3.3-20.91,1.49
		c-26.15-12.2-38.28-39.27-38.85-66.48c1.5-12.01,2.12-27.88,14.94-33.61c0.25,9.46-0.06,18.49,5.23,26.89
		c6.54,10.58,19.92,15.88,32.12,13.45c7.1-3.8,8.34-12.52,13.45-16.44C170.07,186.875,177.23,220.175,155.82,238.975z"/>
	<path d="M211.84,270.345c-0.06-9.399,2.74-25.27-7.47-29.88c-37.41,37.29-52.66,90.2-48.55,138.19c-3.8,0.25-4.42-5.04-5.23-8.221
		c-3.24-38.22,3.61-77.43,21.66-109.05c9.34-11.95,20.86-29.69,35.86-27.64l5.97,12.7C215.82,253.475,218.63,265.925,211.84,270.345
		z"/>
	<path d="M243.21,351.015c-3.73,2.99-10.04-3.399-13.46-4.89c-5.76-1.65-20-10.25-42,7c-3.25,3.25-3.55-1.36-3.55-1.36
		c2.37-9.279,13.04-12.26,20.17-13.449C211.5,337.125,235.74,339.065,243.21,351.015z"/>
	<path d="M471.03,332.345c-32.69-32.35-68.67,22.721-95.601,49.3l-3.739-4.479c0,0-11.141-19.58-37.351-1.5
		c-18.84,12.39-31.71,37.2-32.859,56.02c-0.551,7.99,1.75,20.671,7.42,33.381c-9.15,5.21-41.15,21.18-73.21,11.13
		c-32-9.66-51.07-46.811-56.01-57.59c64.379-10.511,117.53-62.681,149.44-119.881c6.53-16.93,15.87-33.42,15.68-51.54
		c6.41-19.85,4.54-41.95,5.23-61.99c-2.86-24.15-6.601-44.69-14.94-66.48c-9.71-27.39-28.38-52.29-50.05-74.69
		c-24.4-18.68-52.1-30.82-82.91-35.86c-67.22-6.16-130.09,17.18-171.05,70.96l-15.69,29.88c-3.42,9.71-3.42,18.11-6.72,28.38
		c2.68,14.94-4.17,29.26,0,45.57c-1.37,31.62,13.26,60.25,21.66,89.63c-9.65,4.86-17.12,16.06-18.67,25.4
		c-4.98,23.34,7.47,44.5,26.14,56.77c10.89,9.83,32.37-2.62,34.36,16.43c17.93,29.5,50.92,52.53,87.39,49.301
		c3.49-0.08,6.95-0.29,10.38-0.61c4.32,10.19,24.96,54.46,62.82,65.88c8.58,2.69,16.89,3.771,24.74,3.771
		c24.68,0,47.1-10.71,55.95-15.601c12.56,21.54,35.56,39.9,71.699,30.96c62.551-15.81,65.721-29.26,68.721-40.33
		c6.279-23.72-9.471-33.239-10.46-32.87c-2.561,0.12,6.04-4.47-3.74-28.38c-2.34-6.27-18.67-13.449-18.67-13.449
		S489.71,351.355,471.03,332.345z M119.97,405.545c-17.12-12.01-42.02-29.13-42.58-51.54c3.98-2.8,8.34-6.229,7.47-11.2
		c-4.11-1.87-6.29,4.04-9.71,5.971c-12.76,6.779-25.83,0.56-37.35-5.971c-14.63-9.649-17.43-29.88-14.94-45.569
		c1.87-7.03,8.41-8.9,13.45-11.95c11.14-0.061,25.46-1.93,31.37,10.46c1.24,3.79-2.49,6.28-3.73,8.21
		c-4.67,2.12-9.96-0.68-14.2-2.99c-1.68-1.109-1.37-3.29-3.73-4.47c-5.73,2.729,2.05,6.47,1.49,10.45
		c6.48,3.489,11.77,8.149,20.17,7.47c3.74-3.98,9.96-6.47,8.22-13.45c-1.68-4.85-1.68-10.45-4.48-14.93
		c6.84-3.92,8.71-14.51,17.17-12.7c-1.61-4.61-5.97-10.21-9.71-14.94c-25.83-49.109-52.59-100.47-48.55-159.1
		c18.68-34.11,53.22-54.03,84.41-70.96c48.18-23.53,108.24-16.06,149.39,15.69c18.92,11.51,30.13,32.36,43.32,49.29
		c25.399,40.65,36.91,95.43,25.399,143.42c-4.67,47.86-32.06,89.26-64.989,124.74C227.34,394.775,172.88,429.635,119.97,405.545z
		 M426.22,377.165c-11.6,8.24-26.149,16.43-26.149,16.43s28.689,5.771,31.38,11.95c9.43,24-3.05,30.15-0.75,29.88
		c1.24-0.22,17.77,3.08,11.2,26.141c-2.71,11.729-5.881,19.729-56.021,30.63c-21.86,4.85-38.58-1.79-49.3-9.721
		c-18.95-13.979-27.61-32.47-26.89-47.8c1.5-18.7,7.01-30.24,24.649-44.069c20.76-17.461,25.4-8.961,25.4-8.961
		c7.029,2.78,9.96,9.961,8.96,11.2c-0.76,0.53-21.38,25.82-10.46,17.931c13.02-9.221,41.359-44.051,54.529-55.28
		c17.711-15.11,34.49-27.13,45.57-15.68C469.5,350.605,443.13,366.315,426.22,377.165z"/>
	<path d="M353.02,443.635c0,0,23.711-31.38,30.62-23.149C393.23,431.505,353.02,443.635,353.02,443.635z"/>
	<path d="M371.69,462.315c0,0,23.71-31.391,30.619-23.16C411.9,450.175,371.69,462.315,371.69,462.315z"/>
	<path d="M393.35,477.995c0,0,23.841-31.51,31.37-23.15C433.69,465.735,393.35,477.995,393.35,477.995z"/>
	<path fill="#FFFFFF" d="M353.02,443.635c0,0,23.711-31.38,30.62-23.149C393.23,431.505,353.02,443.635,353.02,443.635z"/>
	<path fill="#FFFFFF" d="M371.69,462.315c0,0,23.71-31.391,30.619-23.16C411.9,450.175,371.69,462.315,371.69,462.315z"/>
	<path fill="#FFFFFF" d="M393.35,477.995c0,0,23.841-31.51,31.37-23.15C433.69,465.735,393.35,477.995,393.35,477.995z"/>
	<path d="M353.02,443.635c0,0,23.711-31.38,30.62-23.149C393.23,431.505,353.02,443.635,353.02,443.635z"/>
	<path d="M371.69,462.315c0,0,23.71-31.391,30.619-23.16C411.9,450.175,371.69,462.315,371.69,462.315z"/>
	<path d="M393.35,477.995c0,0,23.841-31.51,31.37-23.15C433.69,465.735,393.35,477.995,393.35,477.995z"/>
</g>
</svg>
